# xmcd
# Track frame offsets:
# 150
# 11471
# 32390
# 43634
# 59604
# 70398
# 79242
# 92512
# 106456
# 129101
# 138545
# 147766
#
# Disc length: 2151 seconds
# Revision: 0
# Processed by: cddbd v1.5.2PL0 Copyright (c) Steve Scherf et al.
# Submitted via: VisiTrax 2.11.1.266 - For more info visit www.synapsa.com
#
DISCID=9c08650c
DTITLE=Johnny Cash - Christmas With Johnny Cash
DYEAR=2003
DGENRE=Country
TTITLE0=I Heard The Bells On Christmas Day
TTITLE1=The Christmas Guest
TTITLE2=Hark, The Herald Angels Sing
TTITLE3=The Gifts They Gave
TTITLE4=Blue Christmas
TTITLE5=Merry Christmas Mary
TTITLE6=Oh Come All Ye Faithful
TTITLE7=Away In A Manger
TTITLE8=The Christmas Spirit
TTITLE9=Joy To The World
TTITLE10=Silent Night
TTITLE11=Christmas As I Knew It - (Previously Unreleased)
EXTD=
EXTT0=
EXTT1=
EXTT2=
EXTT3=
EXTT4=
EXTT5=
EXTT6=
EXTT7=
EXTT8=
EXTT9=
EXTT10=
EXTT11=
PLAYORDER=
